<svg xmlns="http://www.w3.org/2000/svg" width="1023.955" height="1023.955" viewBox="0 0 696 696">
  <metadata><?xpacket begin="﻿" id="W5M0MpCehiHzreSzNTczkc9d"?>
<x:xmpmeta xmlns:x="adobe:ns:meta/" x:xmptk="Adobe XMP Core 5.6-c142 79.160924, 2017/07/13-01:06:39        ">
   <rdf:RDF xmlns:rdf="http://www.w3.org/1999/02/22-rdf-syntax-ns#">
      <rdf:Description rdf:about=""/>
   </rdf:RDF>
</x:xmpmeta>
                                                                                                    
                                                                                                    
                                                                                                    
                                                                                                    
                                                                                                    
                                                                                                    
                                                                                                    
                                                                                                    
                                                                                                    
                                                                                                    
                                                                                                    
                                                                                                    
                                                                                                    
                                                                                                    
                                                                                                    
                                                                                                    
                                                                                                    
                                                                                                    
                                                                                                    
                                                                                                    
                           
<?xpacket end="w"?></metadata>
<defs>
    <style>
      .cls-1 {
        fill: #ec6f59;
      }

      .cls-1, .cls-2, .cls-3 {
        fill-rule: evenodd;
      }

      .cls-2 {
        fill: #fad15c;
      }
    </style>
  </defs>
  <path id="Color_Fill_1" data-name="Color Fill 1" class="cls-1" d="M398,672c40.537-6.27,71.268-22.194,98-42,62.18-46.069,119.089-156.4,94-275-5.9-27.909-13.56-54.329-24-78l-18-33-3-2c-0.129,50.837-11.7,123.146-35,151l-1,2q-3-15.5-6-31l-18-47c-37.9-85.932-136.762-182.949-65-294h-3L373,41C175.615,128.04,192.594,300.762,198,305c-24.622-13.136-26.369-50.17-30-84-55.889,46.991-71.778,167.343-65,197,12.844,56.2,91.8,167.912,135,192,7.718,3.651,58.12,41.052,100,56C372.472,678.3,399.129,671.825,398,672Z"/>
  <path id="Color_Fill_2" data-name="Color Fill 2" class="cls-2" d="M238,610c17.751,16.6,86.138,58.144,114,64,15.359,3.228,33-4.987,43-9,45.191-18.141,98.412-57.851,87-130-3.178-20.09-10.171-37.188-15-54-2.946,8.452-3.914,23.744-6,32-4.588,18.161-11.827,39.825-22,52,0,0.667-8.938,10.882-5,6,2.936-14.756,2.725-43.542,0-61-11.4-73.037-122.293-130.052-99-182,9.455-21.086-7.4-25.009-41,8-27.805,48.832-37.559,113.906-14,173-17.266-8.089-33.541-39.1-38-60C180.61,516.787,238.754,610.705,238,610Z"/>
  <path id="ShieldVect" class="cls-3" d="M71,142c105.554,2.074,171.206-31.359,241-66L289,94c-16.891,13.254-34.2,31.729-46,50,42.149-12.1,72.94-42.285,111-56V638h-1c-97.7-38.878-169.1-102.643-210-198q-12.5-38.5-25-77l-7-34q-4,21-8,42-0.5,22-1,44c-5.237-27.682-15.55-56.594-22-86C68.055,274.542,68.335,205.807,71,142Zm226,39c-25.415,15.8-56.718,19.2-88,30q-4.5,25-9,50v52l-2-2c-22.047-10.729-30.059-55.521-32-86l-2,1c-11.862,26.355-4.228,80.787,2,110,20.617,96.7,57.317,172.435,133,213V276C299,260.493,302.806,187.711,297,181Z"/>
</svg>
